<svg width="128" height="24" viewBox="0 0 128 24" fill="none" xmlns="http://www.w3.org/2000/svg">
<path d="M102 0H78V24H102V0Z" fill="#73cf10"/>
<path d="M90 16.175L93.65 15.25L95.175 19.9501L90 16.175ZM98.4 10.1H91.975L90 4.05005L88.025 10.1H81.6L86.8 13.8501L84.825 19.9001L90.025 16.15L93.225 13.8501L98.4 10.1Z" fill="white"/>
<path d="M76 0H52V24H76V0Z" fill="#73cf10"/>
<path d="M64 16.175L67.65 15.25L69.175 19.9501L64 16.175ZM72.4 10.1H65.975L64 4.05005L62.025 10.1H55.6L60.8 13.8501L58.825 19.9001L64.025 16.15L67.225 13.8501L72.4 10.1Z" fill="white"/>
<path d="M50 0H26V24H50V0Z" fill="#73cf10"/>
<path d="M38 16.175L41.65 15.25L43.175 19.9501L38 16.175ZM46.4 10.1H39.975L38 4.05005L36.025 10.1H29.6L34.8 13.8501L32.825 19.9001L38.025 16.15L41.225 13.8501L46.4 10.1Z" fill="white"/>
<path d="M24 0H0V24H24V0Z" fill="#73cf10"/>
<path d="M12 16.175L15.65 15.25L17.175 19.9501L12 16.175ZM20.4 10.1H13.975L12 4.05005L10.025 10.1H3.59998L8.79998 13.8501L6.82497 19.9001L12.025 16.15L15.225 13.8501L20.4 10.1Z" fill="white"/>
<path d="M128 0H116V24H128V0Z" fill="#DCDCE6"/>
<path d="M116 0H104V24H116V0Z" fill="#DCDCE6"/>
<path d="M116 16.175L119.65 15.25L121.175 19.9501L116 16.175ZM124.4 10.1H117.975L116 4.05005L114.025 10.1H107.6L112.8 13.8501L110.825 19.9001L116.025 16.15L119.225 13.8501L124.4 10.1Z" fill="white"/>
</svg>
